<svg width="20" height="20" viewBox="0 0 20 20" fill="none" xmlns="http://www.w3.org/2000/svg">
<path d="M6.5 12.25H16L17.75 5.25H4.75M7.2375 15.2008L4.25 3.25H2.25" stroke="#776464" stroke-linecap="round" stroke-linejoin="round"/>
<path d="M7.60471 15.25H15.145M6.60046 15.3748C6.7482 15.2895 6.91129 15.2341 7.08042 15.2119C7.24955 15.1896 7.42141 15.2009 7.58619 15.245C7.75097 15.2892 7.90543 15.3653 8.04077 15.4692C8.17611 15.573 8.28967 15.7025 8.37496 15.8503C8.46025 15.998 8.51561 16.1611 8.53788 16.3302C8.56014 16.4994 8.54887 16.6712 8.50472 16.836C8.46057 17.0008 8.38439 17.1552 8.28054 17.2906C8.17669 17.4259 8.0472 17.5395 7.89946 17.6248C7.60109 17.797 7.24651 17.8437 6.91373 17.7545C6.58095 17.6654 6.29722 17.4476 6.12496 17.1493C5.9527 16.8509 5.90603 16.4963 5.9952 16.1635C6.08437 15.8308 6.30209 15.547 6.60046 15.3748ZM14.8505 15.3748C14.9982 15.2895 15.1613 15.2341 15.3304 15.2119C15.4996 15.1896 15.6714 15.2009 15.8362 15.245C16.001 15.2892 16.1554 15.3653 16.2908 15.4692C16.4261 15.573 16.5397 15.7025 16.625 15.8503C16.7103 15.998 16.7656 16.1611 16.7879 16.3302C16.8101 16.4994 16.7989 16.6712 16.7547 16.836C16.7106 17.0008 16.6344 17.1552 16.5305 17.2906C16.4267 17.4259 16.2972 17.5395 16.1495 17.6248C15.8511 17.797 15.4965 17.8437 15.1637 17.7545C14.8309 17.6654 14.5472 17.4476 14.375 17.1493C14.2027 16.8509 14.156 16.4963 14.2452 16.1635C14.3344 15.8308 14.5521 15.547 14.8505 15.3748Z" stroke="#776464" stroke-linecap="round" stroke-linejoin="round"/>
</svg>
